PathFileType	4	(X/Y/Z)	C:/Users/opensim2020/Desktop/walking_exp_matlab/subject02_walking05_straight_03.trc																																																																																																																												
DataRate	CameraRate	NumFrames	NumMarkers	Units	OrigDataRate	OrigDataStartFrame	OrigNumFrames																																																																																																																								
100	100	6	42	mm	100	2273	224																																																																																																																								
Frame#	Time	LFHD			RFHD			LBHD			RBHD			C7			T10			CLAV			STRN			RBAK			LSHO			LUPA			LELB			LFRM			LWRA			LWRB			LFIN			RSHO			RUPA			RELB			RFRM			RWRA			RWRB			RFIN			LASI			RASI			LPSI			RPSI			LTHI			LKNE			LTIB			LANK			LHEE			LTOE			RTHI			RKNE			RTIB			RANK			RHEE			RTOE			*39			*40			*41		
		X1	Y1	Z1	X2	Y2	Z2	X3	Y3	Z3	X4	Y4	Z4	X5	Y5	Z5	X6	Y6	Z6	X7	Y7	Z7	X8	Y8	Z8	X9	Y9	Z9	X10	Y10	Z10	X11	Y11	Z11	X12	Y12	Z12	X13	Y13	Z13	X14	Y14	Z14	X15	Y15	Z15	X16	Y16	Z16	X17	Y17	Z17	X18	Y18	Z18	X19	Y19	Z19	X20	Y20	Z20	X21	Y21	Z21	X22	Y22	Z22	X23	Y23	Z23	X24	Y24	Z24	X25	Y25	Z25	X26	Y26	Z26	X27	Y27	Z27	X28	Y28	Z28	X29	Y29	Z29	X30	Y30	Z30	X31	Y31	Z31	X32	Y32	Z32	X33	Y33	Z33	X34	Y34	Z34	X35	Y35	Z35	X36	Y36	Z36	X37	Y37	Z37	X38	Y38	Z38	X39	Y39	Z39	X40	Y40	Z40	X41	Y41	Z41	X42	Y42	Z42
																																																																																																																															
197	1.96	802.49524	1754.19189	-1113.32544	776.34485	1734.51843	-971.74445	697.63324	1650.30103	-1145.8822	660.52344	1627.06079	-1008.82025	646.17462	1522.36694	-1077.16187	589.72589	1249.50146	-1074.73767	787.76001	1455.94116	-1072.86169	836.1377	1282.41541	-1063.33582	581.78522	1350.46399	-1018.36847	741.92444	1503.30713	-1245.69312	789.50708	1319.89954	-1347.03076	843.11206	1190.45398	-1375.40442	917.61304	1080.08948	-1386.55005	1017.04089	994.16284	-1340.74683	985.67847	977.73785	-1384.54761	1036.49255	936.15906	-1385.59607	708.22552	1486.83704	-883.21143	665.50067	1297.66675	-803.57233	677.59906	1152.55151	-779.07025	714.06586	1037.95557	-754.86969	776.68903	917.10559	-766.54889	726.76917	908.45215	-740.50189	770.0127	850.31384	-732.68201	822.85297	989.40759	-1200.82312	816.21991	977.12555	-944.91943	611.2934	1029.78589	-1124.82336	602.37537	1026.27625	-1011.36395	729.42279	676.78522	-1247.3457	669.45258	479.883	-1218.00085	588.66095	302.06909	-1224.22339	560.70258	79.33739	-1185.81934	515.87878	53.9858	-1140.07275	715.57361	37.18129	-1177.69763	802.27478	676.34375	-865.88898	875.73865	480.79236	-899.99249	887.09265	293.58932	-894.86108	935.70135	105.35078	-923.0177	936.57507	45.95044	-986.19287	1086.62207	90.5257	-871.99591	671.39423	1792.63635	-1049.30359	2845.82544	1033.8634	-3357.5376	NaN	NaN	NaN
198	1.97	811.90619	1752.9425	-1111.71387	785.53735	1733.25452	-970.06097	707.25409	1648.96082	-1144.52271	670.30487	1625.38391	-1007.29785	655.80304	1521.08533	-1075.81384	599.21417	1248.28967	-1073.29578	797.42938	1454.58362	-1071.56714	845.63696	1280.98828	-1062.12732	591.35724	1349.22986	-1017.1698	751.65735	1502.10803	-1244.22168	800.80469	1319.23669	-1345.36536	856.14166	1190.46814	-1373.87231	932.5481	1081.23535	-1384.28882	1033.24304	997.21649	-1338.19653	1002.2326	980.10132	-1382.0022	1053.84839	939.5119	-1382.86523	717.99976	1485.35339	-881.88525	674.479	1296.62842	-802.1554	685.20447	1151.07007	-777.96155	720.8186	1036.39319	-753.35571	782.18506	914.89551	-765.00647	732.07495	906.82928	-738.80066	774.84888	848.26282	-730.8075	831.8963	988.22229	-1199.81897	826.13031	975.59601	-943.98193	620.27325	1028.76477	-1123.1864	612.15149	1024.9259	-1009.73865	735.21039	676.15833	-1246.80518	673.77985	479.70966	-1217.35425	590.99487	302.78656	-1223.48474	561.02466	80.08659	-1185.35559	516.14227	55.35474	-1139.48059	715.74377	36.88116	-1177.51416	809.90277	673.90088	-866.14471	884.8363	479.36765	-901.38324	903.73676	293.10205	-894.60016	960.76392	106.47282	-920.86786	963.80536	46.94508	-983.62396	1113.21252	96.69927	-871.2428	680.75061	1791.21558	-1047.91528	2845.12598	1033.79919	-3360.35718	NaN	NaN	NaN
199	1.98	821.41882	1751.83643	-1110.32031	794.93542	1731.94336	-968.64502	716.90564	1647.63855	-1143.12073	679.66803	1624.08618	-1006.0874	665.55981	1519.79578	-1074.30078	608.81604	1247.09473	-1071.75903	807.08466	1453.20081	-1070.13806	855.2373	1279.63159	-1060.82068	600.93311	1347.94824	-1015.78143	761.41901	1500.87915	-1242.69104	811.93945	1318.51208	-1343.84778	868.78906	1190.28015	-1372.1167	946.95081	1082.14429	-1382.14441	1048.91895	1000.02496	-1335.53113	1018.2345	982.21021	-1379.31372	1070.58594	942.61554	-1379.9939	727.83807	1483.88696	-880.41064	683.30121	1295.36072	-800.80939	693.32642	1149.84924	-776.49042	727.52045	1034.82751	-751.7301	787.78583	912.69366	-762.83997	737.64697	905.24396	-736.9295	779.64545	846.18085	-728.97583	841.03571	986.96783	-1198.79626	836.09644	973.92169	-943.09149	629.52393	1027.68738	-1121.36072	622.04193	1023.55664	-1007.74005	741.21399	675.63855	-1246.27588	678.34131	479.62631	-1216.73792	593.50568	303.62741	-1222.60803	561.41302	81.02104	-1185.02417	516.33765	56.60648	-1139.0094	715.875	37.02333	-1177.97119	817.57672	671.32959	-866.34674	893.89124	477.68335	-902.96906	919.57385	292.77768	-894.54169	984.04474	107.9867	-919.17249	988.53925	48.42383	-981.43176	1137.81519	102.84373	-870.71851	689.97418	1789.89148	-1046.54272	2845.22754	1033.83752	-3360.30103	NaN	NaN	NaN
200	1.99	830.85114	1750.56177	-1108.40735	804.5321	1730.60852	-966.93158	726.55267	1646.31848	-1141.48071	689.43835	1622.53491	-1004.39941	675.25165	1518.55579	-1072.69543	618.5166	1245.87463	-1070.18384	816.85675	1451.84888	-1068.57446	864.86237	1278.25317	-1059.35547	610.23584	1346.61145	-1014.34198	771.13306	1499.64001	-1241.05579	822.99506	1317.67773	-1341.97314	881.1156	1189.96313	-1370.26733	960.78815	1082.81299	-1379.49683	1064.03247	1002.58154	-1332.73462	1033.67578	984.09241	-1376.43945	1086.63989	945.39319	-1376.98022	737.6748	1482.30847	-878.75171	692.18182	1293.90894	-799.36304	701.38483	1148.52393	-774.88837	734.43256	1033.13831	-750.02625	793.81909	910.50891	-760.89874	743.2782	903.5481	-735.02228	784.6106	843.9718	-726.9549	850.3421	985.53943	-1197.78455	846.1438	972.10089	-942.23022	638.75751	1026.64624	-1119.4519	632.0174	1022.21991	-1005.61194	747.42194	675.05658	-1245.56104	683.21881	479.52667	-1216.07629	596.14355	304.67847	-1221.90002	561.78973	82.07499	-1184.7251	516.85382	58.13457	-1138.50073	715.95447	36.96088	-1178.12268	825.6424	669.00793	-866.40363	903.44897	475.85892	-904.48438	934.58386	292.5278	-894.84686	1005.01379	109.52322	-917.96167	1011.33875	49.81894	-979.5274	1160.04004	108.30526	-870.01764	699.50464	1788.19946	-1044.63306	2845.15527	1033.84192	-3360.24927	NaN	NaN	NaN
201	2	840.35217	1749.41077	-1106.60925	813.95233	1729.30176	-965.37732	736.21344	1645.01355	-1139.79565	699.11206	1621.11194	-1002.61322	685.06891	1517.30054	-1070.92969	628.31549	1244.56689	-1068.49731	826.5802	1450.53674	-1066.82947	874.71075	1276.92542	-1057.82544	619.97827	1345.47534	-1013.16107	780.89301	1498.36987	-1239.32886	833.76575	1316.70776	-1340.00525	893.07233	1189.41357	-1368.17749	974.22272	1083.32642	-1376.99756	1078.65515	1004.91217	-1329.89136	1048.46155	985.6441	-1373.38074	1102.10901	947.96759	-1373.95837	747.55499	1480.72437	-876.94373	701.17236	1292.54346	-797.79352	709.55438	1146.97583	-773.41492	741.74243	1031.62903	-748.10425	799.44318	908.30695	-758.79572	749.09857	901.97198	-732.87354	789.46735	841.80206	-724.74597	859.57477	984.18683	-1196.85034	856.27417	970.24841	-941.47638	648.1734	1025.58142	-1117.31836	642.06403	1020.96039	-1003.35876	753.87897	674.56757	-1244.96997	688.46594	479.46765	-1215.48303	599.05042	305.72733	-1221.14722	562.29089	83.20744	-1184.59143	517.26666	59.5974	-1138.24792	716.14471	36.92633	-1178.11584	834.25122	666.73669	-866.46997	913.6944	474.28067	-905.64398	948.83215	292.276	-895.02826	1024.14551	110.94269	-916.67999	1031.28699	51.08169	-978.23535	1179.64587	112.44584	-869.46252	708.87952	1787.01477	-1042.94458	2845.20532	1033.7417	-3360.18262	NaN	NaN	NaN
202	2.01	849.96075	1748.35608	-1104.89526	823.55475	1728.19019	-963.21838	745.94287	1643.75256	-1137.94128	708.78284	1619.81421	-1000.76385	695.0047	1516.0127	-1068.96313	638.37164	1243.2583	-1066.70251	836.46698	1449.26282	-1065.00732	884.65833	1275.68469	-1056.12695	629.95959	1344.08179	-1011.25519	790.70618	1497.13806	-1237.51257	844.29468	1315.66956	-1337.97388	904.62201	1188.75244	-1365.91064	987.18457	1083.77161	-1374.67725	1092.78064	1007.05145	-1326.98059	1062.63086	986.96899	-1370.11292	1116.9043	950.23822	-1370.79126	757.43311	1479.21558	-875.03735	710.60095	1291.28455	-795.87372	717.95245	1145.75793	-771.63763	748.8822	1030.0907	-746.25848	805.42065	906.10278	-756.63696	754.94232	900.37769	-730.70935	794.90369	839.81622	-722.65662	869.08319	982.77112	-1195.97974	866.51776	968.39246	-940.66492	657.78168	1024.58643	-1115.17896	652.19464	1019.76343	-1000.95386	760.72449	674.03949	-1244.19653	694.06372	479.33963	-1214.9032	602.23145	306.88922	-1220.58972	562.8006	84.43554	-1184.52246	517.61792	61.33493	-1138.38965	716.24854	36.9216	-1178.30505	843.60596	664.69928	-866.4826	925.45752	473.62045	-905.67712	962.56317	292.16888	-895.06329	1040.43506	111.73471	-916.55237	1048.60181	51.86628	-978.13165	1196.21423	114.55356	-869.4809	718.40662	1785.71411	-1041.18213	2845.98828	1033.93604	-3357.25391	NaN	NaN	NaN
